<svg xmlns="http://www.w3.org/2000/svg" width="1440" height="900"><path d="M736,463L868,535L822,415Z" fill="#fff0f2" stroke="#fff0f2" stroke-width="1.51"/><path d="M868,535L933,482L822,415Z" fill="#ffe7eb" stroke="#ffe7eb" stroke-width="1.51"/><path d="M736,463L696,562L868,535Z" fill="#ffecef" stroke="#ffecef" stroke-width="1.51"/><path d="M822,415L721,294L736,463Z" fill="#ffeef1" stroke="#ffeef1" stroke-width="1.51"/><path d="M933,482L831,352L822,415Z" fill="#ffe7eb" stroke="#ffe7eb" stroke-width="1.51"/><path d="M868,535L990,564L933,482Z" fill="#fdd7dd" stroke="#fdd7dd" stroke-width="1.51"/><path d="M866,679L990,564L868,535Z" fill="#fdcdd5" stroke="#fdcdd5" stroke-width="1.51"/><path d="M736,463L612,457L696,562Z" fill="#fff2f4" stroke="#fff2f4" stroke-width="1.51"/><path d="M600,337L612,457L736,463Z" fill="#fff1f3" stroke="#fff1f3" stroke-width="1.51"/><path d="M696,562L866,679L868,535Z" fill="#fed9df" stroke="#fed9df" stroke-width="1.51"/><path d="M696,562L686,696L866,679Z" fill="#fdd6dd" stroke="#fdd6dd" stroke-width="1.51"/><path d="M612,457L636,598L696,562Z" fill="#ffe6e9" stroke="#ffe6e9" stroke-width="1.51"/><path d="M831,352L721,294L822,415Z" fill="#ffe4e8" stroke="#ffe4e8" stroke-width="1.51"/><path d="M636,598L686,696L696,562Z" fill="#fed9df" stroke="#fed9df" stroke-width="1.51"/><path d="M990,564L1044,556L933,482Z" fill="#fdcfd7" stroke="#fdcfd7" stroke-width="1.51"/><path d="M991,295L812,243L831,352Z" fill="#fdcfd6" stroke="#fdcfd6" stroke-width="1.51"/><path d="M1052,675L1044,556L990,564Z" fill="#fbbec9" stroke="#fbbec9" stroke-width="1.51"/><path d="M831,352L812,243L721,294Z" fill="#fedadf" stroke="#fedadf" stroke-width="1.51"/><path d="M991,295L831,352L933,482Z" fill="#fed9df" stroke="#fed9df" stroke-width="1.51"/><path d="M721,294L600,337L736,463Z" fill="#ffeaee" stroke="#ffeaee" stroke-width="1.51"/><path d="M575,232L600,337L721,294Z" fill="#fdd5dc" stroke="#fdd5dc" stroke-width="1.51"/><path d="M1049,350L991,295L933,482Z" fill="#fdd0d8" stroke="#fdd0d8" stroke-width="1.51"/><path d="M866,679L933,727L990,564Z" fill="#fabec9" stroke="#fabec9" stroke-width="1.51"/><path d="M838,800L933,727L866,679Z" fill="#ecc6d4" stroke="#ecc6d4" stroke-width="1.51"/><path d="M1088,458L1049,350L933,482Z" fill="#fdd7de" stroke="#fdd7de" stroke-width="1.51"/><path d="M636,598L629,705L686,696Z" fill="#fdcdd6" stroke="#fdcdd6" stroke-width="1.51"/><path d="M686,696L732,786L866,679Z" fill="#f1d3de" stroke="#f1d3de" stroke-width="1.51"/><path d="M456,687L629,705L636,598Z" fill="#fcc5cf" stroke="#fcc5cf" stroke-width="1.51"/><path d="M509,541L636,598L612,457Z" fill="#fedfe4" stroke="#fedfe4" stroke-width="1.51"/><path d="M1044,556L1088,458L933,482Z" fill="#fdd1d9" stroke="#fdd1d9" stroke-width="1.51"/><path d="M812,243L753,212L721,294Z" fill="#fdd4db" stroke="#fdd4db" stroke-width="1.51"/><path d="M726,120L753,212L827,106Z" fill="#e7d5e2" stroke="#e7d5e2" stroke-width="1.51"/><path d="M494,424L509,541L612,457Z" fill="#fee5e9" stroke="#fee5e9" stroke-width="1.51"/><path d="M629,705L732,786L686,696Z" fill="#eed4df" stroke="#eed4df" stroke-width="1.51"/><path d="M1044,556L1201,483L1088,458Z" fill="#f7ccd6" stroke="#f7ccd6" stroke-width="1.51"/><path d="M933,727L1052,675L990,564Z" fill="#f9b7c3" stroke="#f9b7c3" stroke-width="1.51"/><path d="M732,786L838,800L866,679Z" fill="#e7d0de" stroke="#e7d0de" stroke-width="1.51"/><path d="M933,727L990,807L1052,675Z" fill="#eab9ca" stroke="#eab9ca" stroke-width="1.51"/><path d="M600,337L494,424L612,457Z" fill="#ffe5e9" stroke="#ffe5e9" stroke-width="1.51"/><path d="M575,232L490,358L600,337Z" fill="#fdd0d8" stroke="#fdd0d8" stroke-width="1.51"/><path d="M600,337L490,358L494,424Z" fill="#fed9df" stroke="#fed9df" stroke-width="1.51"/><path d="M753,212L575,232L721,294Z" fill="#fdd3da" stroke="#fdd3da" stroke-width="1.51"/><path d="M991,295L986,190L812,243Z" fill="#fabec9" stroke="#fabec9" stroke-width="1.51"/><path d="M1095,236L986,190L991,295Z" fill="#f9b2c0" stroke="#f9b2c0" stroke-width="1.51"/><path d="M838,800L990,807L933,727Z" fill="#e0c5d7" stroke="#e0c5d7" stroke-width="1.51"/><path d="M753,212L726,120L575,232Z" fill="#f3d2dd" stroke="#f3d2dd" stroke-width="1.51"/><path d="M827,106L753,212L812,243Z" fill="#f2cdd9" stroke="#f2cdd9" stroke-width="1.51"/><path d="M1227,314L1095,236L1049,350Z" fill="#f3b9c7" stroke="#f3b9c7" stroke-width="1.51"/><path d="M1049,350L1095,236L991,295Z" fill="#fabac6" stroke="#fabac6" stroke-width="1.51"/><path d="M963,68L827,106L986,190Z" fill="#e0c4d7" stroke="#e0c4d7" stroke-width="1.51"/><path d="M986,190L827,106L812,243Z" fill="#f0c5d2" stroke="#f0c5d2" stroke-width="1.51"/><path d="M732,786L709,927L838,800Z" fill="#cedcf0" stroke="#cedcf0" stroke-width="1.51"/><path d="M838,800L974,954L990,807Z" fill="#cac9e1" stroke="#cac9e1" stroke-width="1.51"/><path d="M629,705L611,830L732,786Z" fill="#e2d5e3" stroke="#e2d5e3" stroke-width="1.51"/><path d="M508,777L611,830L629,705Z" fill="#e3ccdc" stroke="#e3ccdc" stroke-width="1.51"/><path d="M1088,458L1227,314L1049,350Z" fill="#f5c7d3" stroke="#f5c7d3" stroke-width="1.51"/><path d="M1200,606L1201,483L1044,556Z" fill="#f1c4d2" stroke="#f1c4d2" stroke-width="1.51"/><path d="M1200,606L1044,556L1052,675Z" fill="#f7b5c3" stroke="#f7b5c3" stroke-width="1.51"/><path d="M509,541L456,687L636,598Z" fill="#fccad3" stroke="#fccad3" stroke-width="1.51"/><path d="M390,570L456,687L509,541Z" fill="#fcc2cc" stroke="#fcc2cc" stroke-width="1.51"/><path d="M390,570L509,541L364,453Z" fill="#fdced6" stroke="#fdced6" stroke-width="1.51"/><path d="M1200,678L1200,606L1052,675Z" fill="#edb1c2" stroke="#edb1c2" stroke-width="1.51"/><path d="M456,687L508,777L629,705Z" fill="#eec1cf" stroke="#eec1cf" stroke-width="1.51"/><path d="M575,232L494,205L490,358Z" fill="#fcc4cd" stroke="#fcc4cd" stroke-width="1.51"/><path d="M364,453L509,541L494,424Z" fill="#fedbe1" stroke="#fedbe1" stroke-width="1.51"/><path d="M591,66L494,205L575,232Z" fill="#ecc5d3" stroke="#ecc5d3" stroke-width="1.51"/><path d="M364,453L494,424L490,358Z" fill="#fed7de" stroke="#fed7de" stroke-width="1.51"/><path d="M1306,466L1227,314L1201,483Z" fill="#e0d7e6" stroke="#e0d7e6" stroke-width="1.51"/><path d="M1114,812L1200,678L1052,675Z" fill="#e6afc3" stroke="#e6afc3" stroke-width="1.51"/><path d="M324,294L364,453L490,358Z" fill="#fcc8d1" stroke="#fcc8d1" stroke-width="1.51"/><path d="M990,807L1114,812L1052,675Z" fill="#e2b4c8" stroke="#e2b4c8" stroke-width="1.51"/><path d="M1049,901L1114,812L990,807Z" fill="#cebad4" stroke="#cebad4" stroke-width="1.51"/><path d="M611,830L709,927L732,786Z" fill="#cbdef2" stroke="#cbdef2" stroke-width="1.51"/><path d="M596,945L709,927L611,830Z" fill="#b9dcf6" stroke="#b9dcf6" stroke-width="1.51"/><path d="M1093,103L963,68L986,190Z" fill="#dfbace" stroke="#dfbace" stroke-width="1.51"/><path d="M579,2L591,66L684,-67Z" fill="#badaf3" stroke="#badaf3" stroke-width="1.51"/><path d="M709,927L827,943L838,800Z" fill="#bdddf5" stroke="#bdddf5" stroke-width="1.51"/><path d="M1201,483L1227,314L1088,458Z" fill="#eed3df" stroke="#eed3df" stroke-width="1.51"/><path d="M1095,236L1093,103L986,190Z" fill="#ecafc1" stroke="#ecafc1" stroke-width="1.51"/><path d="M1291,580L1201,483L1200,606Z" fill="#e3c7d9" stroke="#e3c7d9" stroke-width="1.51"/><path d="M390,570L379,675L456,687Z" fill="#f9b4c1" stroke="#f9b4c1" stroke-width="1.51"/><path d="M456,687L395,822L508,777Z" fill="#e4bcce" stroke="#e4bcce" stroke-width="1.51"/><path d="M226,667L379,675L390,570Z" fill="#f4b1c0" stroke="#f4b1c0" stroke-width="1.51"/><path d="M726,120L591,66L575,232Z" fill="#e5d0df" stroke="#e5d0df" stroke-width="1.51"/><path d="M830,0L726,120L827,106Z" fill="#d3d7eb" stroke="#d3d7eb" stroke-width="1.51"/><path d="M974,954L1049,901L990,807Z" fill="#c0c4df" stroke="#c0c4df" stroke-width="1.51"/><path d="M1227,314L1196,208L1095,236Z" fill="#eab3c5" stroke="#eab3c5" stroke-width="1.51"/><path d="M1196,208L1093,103L1095,236Z" fill="#e6afc3" stroke="#e6afc3" stroke-width="1.51"/><path d="M971,-61L830,0L963,68Z" fill="#bccfe9" stroke="#bccfe9" stroke-width="1.51"/><path d="M963,68L830,0L827,106Z" fill="#ced0e5" stroke="#ced0e5" stroke-width="1.51"/><path d="M1200,678L1291,580L1200,606Z" fill="#e2bbcf" stroke="#e2bbcf" stroke-width="1.51"/><path d="M1348,672L1291,580L1200,678Z" fill="#d9b9cf" stroke="#d9b9cf" stroke-width="1.51"/><path d="M1182,822L1200,678L1114,812Z" fill="#d3b6ce" stroke="#d3b6ce" stroke-width="1.51"/><path d="M827,943L974,954L838,800Z" fill="#bbd4ee" stroke="#bbd4ee" stroke-width="1.51"/><path d="M494,205L324,294L490,358Z" fill="#fbbec9" stroke="#fbbec9" stroke-width="1.51"/><path d="M591,66L475,122L494,205Z" fill="#e3c4d6" stroke="#e3c4d6" stroke-width="1.51"/><path d="M1291,580L1306,466L1201,483Z" fill="#ddd2e4" stroke="#ddd2e4" stroke-width="1.51"/><path d="M1227,314L1301,293L1196,208Z" fill="#e0bace" stroke="#e0bace" stroke-width="1.51"/><path d="M1205,941L1114,812L1049,901Z" fill="#b9bddb" stroke="#b9bddb" stroke-width="1.51"/><path d="M1205,941L1182,822L1114,812Z" fill="#b9bddb" stroke="#b9bddb" stroke-width="1.51"/><path d="M714,1035L850,1026L827,943Z" fill="#b9ddf6" stroke="#b9ddf6" stroke-width="1.51"/><path d="M827,943L850,1026L974,954Z" fill="#bad3ed" stroke="#bad3ed" stroke-width="1.51"/><path d="M444,936L596,945L611,830Z" fill="#bad2ed" stroke="#bad2ed" stroke-width="1.51"/><path d="M444,936L611,830L508,777Z" fill="#cccbe2" stroke="#cccbe2" stroke-width="1.51"/><path d="M364,453L225,552L390,570Z" fill="#f6c7d2" stroke="#f6c7d2" stroke-width="1.51"/><path d="M352,174L324,294L494,205Z" fill="#f8acbb" stroke="#f8acbb" stroke-width="1.51"/><path d="M379,675L395,822L456,687Z" fill="#ecb3c5" stroke="#ecb3c5" stroke-width="1.51"/><path d="M252,816L395,822L379,675Z" fill="#deb2c8" stroke="#deb2c8" stroke-width="1.51"/><path d="M1196,208L1235,75L1093,103Z" fill="#d1b7cf" stroke="#d1b7cf" stroke-width="1.51"/><path d="M1306,466L1301,293L1227,314Z" fill="#daccdf" stroke="#daccdf" stroke-width="1.51"/><path d="M714,1035L827,943L709,927Z" fill="#b8e3fb" stroke="#b8e3fb" stroke-width="1.51"/><path d="M591,66L579,2L475,122Z" fill="#cfcde3" stroke="#cfcde3" stroke-width="1.51"/><path d="M475,122L352,174L494,205Z" fill="#ebb8c8" stroke="#ebb8c8" stroke-width="1.51"/><path d="M684,-67L591,66L726,120Z" fill="#c7dcf2" stroke="#c7dcf2" stroke-width="1.51"/><path d="M612,1023L714,1035L709,927Z" fill="#b8e1fa" stroke="#b8e1fa" stroke-width="1.51"/><path d="M612,1023L709,927L596,945Z" fill="#b9dcf6" stroke="#b9dcf6" stroke-width="1.51"/><path d="M330,123L352,174L475,122Z" fill="#e3b3c7" stroke="#e3b3c7" stroke-width="1.51"/><path d="M974,954L1102,1031L1049,901Z" fill="#bdc1dd" stroke="#bdc1dd" stroke-width="1.51"/><path d="M850,1026L974,1024L974,954Z" fill="#bbcde8" stroke="#bbcde8" stroke-width="1.51"/><path d="M1102,1031L974,1024L1169,1080Z" fill="#bdbcda" stroke="#bdbcda" stroke-width="1.51"/><path d="M224,344L247,459L364,453Z" fill="#efd2de" stroke="#efd2de" stroke-width="1.51"/><path d="M224,344L364,453L324,294Z" fill="#f3c6d2" stroke="#f3c6d2" stroke-width="1.51"/><path d="M481,1062L612,1023L596,945Z" fill="#bbd4ee" stroke="#bbd4ee" stroke-width="1.51"/><path d="M717,-125L684,-67L830,0Z" fill="#b8e3fb" stroke="#b8e3fb" stroke-width="1.51"/><path d="M830,0L684,-67L726,120Z" fill="#bfe2f9" stroke="#bfe2f9" stroke-width="1.51"/><path d="M1291,580L1423,597L1306,466Z" fill="#cfcfe5" stroke="#cfcfe5" stroke-width="1.51"/><path d="M1306,466L1435,414L1301,293Z" fill="#cdd6eb" stroke="#cdd6eb" stroke-width="1.51"/><path d="M1316,806L1348,672L1200,678Z" fill="#ccb8d2" stroke="#ccb8d2" stroke-width="1.51"/><path d="M1316,806L1200,678L1182,822Z" fill="#c8bad4" stroke="#c8bad4" stroke-width="1.51"/><path d="M1109,-1L971,-61L963,68Z" fill="#bdc4e0" stroke="#bdc4e0" stroke-width="1.51"/><path d="M1109,-1L963,68L1093,103Z" fill="#cdbad4" stroke="#cdbad4" stroke-width="1.51"/><path d="M1301,293L1298,190L1196,208Z" fill="#dbb4ca" stroke="#dbb4ca" stroke-width="1.51"/><path d="M1453,244L1298,190L1301,293Z" fill="#cdbbd4" stroke="#cdbbd4" stroke-width="1.51"/><path d="M395,822L444,936L508,777Z" fill="#cdc2da" stroke="#cdc2da" stroke-width="1.51"/><path d="M1235,75L1109,-1L1093,103Z" fill="#c2bbd7" stroke="#c2bbd7" stroke-width="1.51"/><path d="M247,459L225,552L364,453Z" fill="#efd1dd" stroke="#efd1dd" stroke-width="1.51"/><path d="M395,822L329,935L444,936Z" fill="#bdc0dc" stroke="#bdc0dc" stroke-width="1.51"/><path d="M1298,190L1235,75L1196,208Z" fill="#cdb8d1" stroke="#cdb8d1" stroke-width="1.51"/><path d="M1205,941L1316,806L1182,822Z" fill="#abc1e2" stroke="#abc1e2" stroke-width="1.51"/><path d="M247,459L154,459L225,552Z" fill="#e3d4e3" stroke="#e3d4e3" stroke-width="1.51"/><path d="M251,237L224,344L324,294Z" fill="#ebbacb" stroke="#ebbacb" stroke-width="1.51"/><path d="M352,174L251,237L324,294Z" fill="#f0adbe" stroke="#f0adbe" stroke-width="1.51"/><path d="M363,-32L330,123L475,122Z" fill="#d1bad2" stroke="#d1bad2" stroke-width="1.51"/><path d="M479,-53L475,122L579,2Z" fill="#c3cce5" stroke="#c3cce5" stroke-width="1.51"/><path d="M1102,1031L1205,941L1049,901Z" fill="#b5bedd" stroke="#b5bedd" stroke-width="1.51"/><path d="M225,552L226,667L390,570Z" fill="#edbccc" stroke="#edbccc" stroke-width="1.51"/><path d="M330,123L251,237L352,174Z" fill="#e5b0c3" stroke="#e5b0c3" stroke-width="1.51"/><path d="M974,1024L1102,1031L974,954Z" fill="#bcc3e0" stroke="#bcc3e0" stroke-width="1.51"/><path d="M1169,1080L974,1024L850,1026Z" fill="#bcc6e2" stroke="#bcc6e2" stroke-width="1.51"/><path d="M971,-61L857,-129L830,0Z" fill="#bad3ed" stroke="#bad3ed" stroke-width="1.51"/><path d="M965,-124L857,-129L971,-61Z" fill="#bbcde9" stroke="#bbcde9" stroke-width="1.51"/><path d="M592,-141L479,-53L579,2Z" fill="#bad2ed" stroke="#bad2ed" stroke-width="1.51"/><path d="M857,-129L717,-125L830,0Z" fill="#b9dcf6" stroke="#b9dcf6" stroke-width="1.51"/><path d="M1448,727L1423,597L1348,672Z" fill="#c3bcd8" stroke="#c3bcd8" stroke-width="1.51"/><path d="M1348,672L1423,597L1291,580Z" fill="#cdc3db" stroke="#cdc3db" stroke-width="1.51"/><path d="M1423,597L1435,414L1306,466Z" fill="#c5dbf2" stroke="#c5dbf2" stroke-width="1.51"/><path d="M1298,190L1304,57L1235,75Z" fill="#b7bedc" stroke="#b7bedc" stroke-width="1.51"/><path d="M1081,-178L971,-61L1109,-1Z" fill="#bcbfdc" stroke="#bcbfdc" stroke-width="1.51"/><path d="M1081,-178L965,-124L971,-61Z" fill="#bcc5e1" stroke="#bcc5e1" stroke-width="1.51"/><path d="M592,-141L579,2L684,-67Z" fill="#b9daf3" stroke="#b9daf3" stroke-width="1.51"/><path d="M226,667L252,816L379,675Z" fill="#e2b1c6" stroke="#e2b1c6" stroke-width="1.51"/><path d="M1535,428L1445,348L1435,414Z" fill="#b9dcf5" stroke="#b9dcf5" stroke-width="1.51"/><path d="M1435,414L1445,348L1301,293Z" fill="#c5d1e9" stroke="#c5d1e9" stroke-width="1.51"/><path d="M252,816L329,935L395,822Z" fill="#c3bad6" stroke="#c3bad6" stroke-width="1.51"/><path d="M444,936L481,1062L596,945Z" fill="#bbcde8" stroke="#bbcde8" stroke-width="1.51"/><path d="M224,344L154,459L247,459Z" fill="#e3d6e4" stroke="#e3d6e4" stroke-width="1.51"/><path d="M225,552L131,602L226,667Z" fill="#dfbfd2" stroke="#dfbfd2" stroke-width="1.51"/><path d="M226,667L143,832L252,816Z" fill="#c7bad5" stroke="#c7bad5" stroke-width="1.51"/><path d="M156,326L154,459L224,344Z" fill="#ddd0e1" stroke="#ddd0e1" stroke-width="1.51"/><path d="M1235,75L1192,-44L1109,-1Z" fill="#abc1e1" stroke="#abc1e1" stroke-width="1.51"/><path d="M1304,57L1192,-44L1235,75Z" fill="#a4c2e5" stroke="#a4c2e5" stroke-width="1.51"/><path d="M1435,90L1304,57L1298,190Z" fill="#abc1e2" stroke="#abc1e2" stroke-width="1.51"/><path d="M714,1035L1169,1080L850,1026Z" fill="#bbd0eb" stroke="#bbd0eb" stroke-width="1.51"/><path d="M612,1023L481,1062L714,1035Z" fill="#bad8f2" stroke="#bad8f2" stroke-width="1.51"/><path d="M361,1029L481,1062L444,936Z" fill="#bcc4e0" stroke="#bcc4e0" stroke-width="1.51"/><path d="M717,-125L592,-141L684,-67Z" fill="#b9e0f8" stroke="#b9e0f8" stroke-width="1.51"/><path d="M857,-129L592,-141L717,-125Z" fill="#b7e6fe" stroke="#b7e6fe" stroke-width="1.51"/><path d="M143,221L251,237L231,60Z" fill="#d3b6ce" stroke="#d3b6ce" stroke-width="1.51"/><path d="M143,221L156,326L251,237Z" fill="#ddb9ce" stroke="#ddb9ce" stroke-width="1.51"/><path d="M251,237L156,326L224,344Z" fill="#e3c0d2" stroke="#e3c0d2" stroke-width="1.51"/><path d="M1324,1076L1311,945L1205,941Z" fill="#8fc6ec" stroke="#8fc6ec" stroke-width="1.51"/><path d="M1205,941L1311,945L1316,806Z" fill="#91c6ec" stroke="#91c6ec" stroke-width="1.51"/><path d="M1316,806L1448,727L1348,672Z" fill="#b7bedc" stroke="#b7bedc" stroke-width="1.51"/><path d="M1474,846L1448,727L1316,806Z" fill="#99c4e9" stroke="#99c4e9" stroke-width="1.51"/><path d="M1423,597L1535,428L1435,414Z" fill="#b8e1f9" stroke="#b8e1f9" stroke-width="1.51"/><path d="M479,-53L363,-32L475,122Z" fill="#c0c4df" stroke="#c0c4df" stroke-width="1.51"/><path d="M373,-114L363,-32L479,-53Z" fill="#bcc2de" stroke="#bcc2de" stroke-width="1.51"/><path d="M99,667L-25,603L-7,654Z" fill="#c1c1dd" stroke="#c1c1dd" stroke-width="1.51"/><path d="M154,459L131,602L225,552Z" fill="#dccde0" stroke="#dccde0" stroke-width="1.51"/><path d="M1445,348L1453,244L1301,293Z" fill="#c4c7e1" stroke="#c4c7e1" stroke-width="1.51"/><path d="M1555,366L1453,244L1445,348Z" fill="#bbcee9" stroke="#bbcee9" stroke-width="1.51"/><path d="M481,1062L1169,1080L714,1035Z" fill="#b9def7" stroke="#b9def7" stroke-width="1.51"/><path d="M1102,1031L1169,1080L1205,941Z" fill="#adc0e1" stroke="#adc0e1" stroke-width="1.51"/><path d="M329,935L361,1029L444,936Z" fill="#bdbedb" stroke="#bdbedb" stroke-width="1.51"/><path d="M273,955L361,1029L329,935Z" fill="#b5bedd" stroke="#b5bedd" stroke-width="1.51"/><path d="M273,955L329,935L252,816Z" fill="#adc0e1" stroke="#adc0e1" stroke-width="1.51"/><path d="M143,832L273,955L252,816Z" fill="#abc1e2" stroke="#abc1e2" stroke-width="1.51"/><path d="M592,-141L494,-153L479,-53Z" fill="#bbcfea" stroke="#bbcfea" stroke-width="1.51"/><path d="M1081,-178L494,-153L592,-141Z" fill="#b7e5fe" stroke="#b7e5fe" stroke-width="1.51"/><path d="M1081,-178L592,-141L857,-129Z" fill="#bad7f1" stroke="#bad7f1" stroke-width="1.51"/><path d="M99,667L131,602L-25,603Z" fill="#c9c2db" stroke="#c9c2db" stroke-width="1.51"/><path d="M231,60L251,237L330,123Z" fill="#d5b6cd" stroke="#d5b6cd" stroke-width="1.51"/><path d="M363,-32L231,60L330,123Z" fill="#c2bbd7" stroke="#c2bbd7" stroke-width="1.51"/><path d="M255,-52L231,60L363,-32Z" fill="#adc0e1" stroke="#adc0e1" stroke-width="1.51"/><path d="M1230,-161L1081,-178L1192,-44Z" fill="#abc0e2" stroke="#abc0e2" stroke-width="1.51"/><path d="M1192,-44L1081,-178L1109,-1Z" fill="#b3bfde" stroke="#b3bfde" stroke-width="1.51"/><path d="M965,-124L1081,-178L857,-129Z" fill="#bcc9e5" stroke="#bcc9e5" stroke-width="1.51"/><path d="M131,602L99,667L226,667Z" fill="#d8bad0" stroke="#d8bad0" stroke-width="1.51"/><path d="M9,340L154,459L156,326Z" fill="#d0d3e8" stroke="#d0d3e8" stroke-width="1.51"/><path d="M1560,571L1535,428L1423,597Z" fill="#bad7f1" stroke="#bad7f1" stroke-width="1.51"/><path d="M1304,57L1354,1L1192,-44Z" fill="#90c6ec" stroke="#90c6ec" stroke-width="1.51"/><path d="M1435,90L1354,1L1304,57Z" fill="#8ec6ed" stroke="#8ec6ed" stroke-width="1.51"/><path d="M1435,90L1298,190L1453,244Z" fill="#b5bedd" stroke="#b5bedd" stroke-width="1.51"/><path d="M1562,662L1560,571L1423,597Z" fill="#bcc8e4" stroke="#bcc8e4" stroke-width="1.51"/><path d="M1311,945L1414,907L1316,806Z" fill="#82c8f1" stroke="#82c8f1" stroke-width="1.51"/><path d="M1420,1020L1414,907L1311,945Z" fill="#6fcbf6" stroke="#6fcbf6" stroke-width="1.51"/><path d="M494,-153L373,-114L479,-53Z" fill="#bcc7e2" stroke="#bcc7e2" stroke-width="1.51"/><path d="M1537,217L1435,90L1453,244Z" fill="#afc0e0" stroke="#afc0e0" stroke-width="1.51"/><path d="M99,667L143,832L226,667Z" fill="#ccb8d2" stroke="#ccb8d2" stroke-width="1.51"/><path d="M1414,907L1474,846L1316,806Z" fill="#82c8f1" stroke="#82c8f1" stroke-width="1.51"/><path d="M1562,662L1423,597L1448,727Z" fill="#bdbfdc" stroke="#bdbfdc" stroke-width="1.51"/><path d="M1560,571L1555,366L1535,428Z" fill="#b7e5fd" stroke="#b7e5fd" stroke-width="1.51"/><path d="M1535,428L1555,366L1445,348Z" fill="#b9d9f3" stroke="#b9d9f3" stroke-width="1.51"/><path d="M373,-114L255,-52L363,-32Z" fill="#b7bedd" stroke="#b7bedd" stroke-width="1.51"/><path d="M231,60L89,113L143,221Z" fill="#bdbcd9" stroke="#bdbcd9" stroke-width="1.51"/><path d="M1552,840L1562,662L1448,727Z" fill="#a6c2e4" stroke="#a6c2e4" stroke-width="1.51"/><path d="M1354,1L1230,-161L1192,-44Z" fill="#95c5ea" stroke="#95c5ea" stroke-width="1.51"/><path d="M1345,-173L1230,-161L1354,1Z" fill="#87c7ef" stroke="#87c7ef" stroke-width="1.51"/><path d="M1555,366L1537,217L1453,244Z" fill="#bcc6e2" stroke="#bcc6e2" stroke-width="1.51"/><path d="M1169,1080L1324,1076L1205,941Z" fill="#9bc4e8" stroke="#9bc4e8" stroke-width="1.51"/><path d="M1597,920L1552,840L1474,846Z" fill="#6bcbf7" stroke="#6bcbf7" stroke-width="1.51"/><path d="M120,1052L263,1053L273,955Z" fill="#9ec3e7" stroke="#9ec3e7" stroke-width="1.51"/><path d="M273,955L263,1053L361,1029Z" fill="#b0bfdf" stroke="#b0bfdf" stroke-width="1.51"/><path d="M361,1029L263,1053L481,1062Z" fill="#bcbddb" stroke="#bcbddb" stroke-width="1.51"/><path d="M1324,1076L1420,1020L1311,945Z" fill="#7ac9f3" stroke="#7ac9f3" stroke-width="1.51"/><path d="M1474,846L1552,840L1448,727Z" fill="#8dc6ed" stroke="#8dc6ed" stroke-width="1.51"/><path d="M118,-2L89,113L231,60Z" fill="#a3c3e5" stroke="#a3c3e5" stroke-width="1.51"/><path d="M143,221L9,340L156,326Z" fill="#cfc4db" stroke="#cfc4db" stroke-width="1.51"/><path d="M-34,229L9,340L143,221Z" fill="#c4c2dc" stroke="#c4c2dc" stroke-width="1.51"/><path d="M99,667L-4,812L143,832Z" fill="#aec0e0" stroke="#aec0e0" stroke-width="1.51"/><path d="M1597,920L1474,846L1539,1019Z" fill="#55cdfc" stroke="#55cdfc" stroke-width="1.51"/><path d="M1537,217L1546,120L1435,90Z" fill="#a0c3e6" stroke="#a0c3e6" stroke-width="1.51"/><path d="M1435,90L1476,1L1354,1Z" fill="#72caf5" stroke="#72caf5" stroke-width="1.51"/><path d="M1555,366L1546,120L1537,217Z" fill="#bdbedb" stroke="#bdbedb" stroke-width="1.51"/><path d="M1546,120L1476,1L1435,90Z" fill="#81c8f1" stroke="#81c8f1" stroke-width="1.51"/><path d="M-25,603L131,602L154,459Z" fill="#cccee4" stroke="#cccee4" stroke-width="1.51"/><path d="M143,832L99,960L273,955Z" fill="#92c5eb" stroke="#92c5eb" stroke-width="1.51"/><path d="M9,340L-29,426L154,459Z" fill="#c3dcf3" stroke="#c3dcf3" stroke-width="1.51"/><path d="M-87,423L-29,426L-108,349Z" fill="#b9dcf6" stroke="#b9dcf6" stroke-width="1.51"/><path d="M-29,426L-25,603L154,459Z" fill="#c1dcf3" stroke="#c1dcf3" stroke-width="1.51"/><path d="M89,113L-34,229L143,221Z" fill="#bebcd9" stroke="#bebcd9" stroke-width="1.51"/><path d="M255,-52L118,-2L231,60Z" fill="#9bc4e8" stroke="#9bc4e8" stroke-width="1.51"/><path d="M219,-177L118,-2L255,-52Z" fill="#99c4e9" stroke="#99c4e9" stroke-width="1.51"/><path d="M-4,812L99,667L-7,654Z" fill="#b7bedc" stroke="#b7bedc" stroke-width="1.51"/><path d="M-8,934L99,960L143,832Z" fill="#76caf4" stroke="#76caf4" stroke-width="1.51"/><path d="M1230,-161L1345,-173L1081,-178Z" fill="#9fc3e7" stroke="#9fc3e7" stroke-width="1.51"/><path d="M1457,-126L1345,-173L1354,1Z" fill="#6dcbf7" stroke="#6dcbf7" stroke-width="1.51"/><path d="M-93,686L-4,812L-7,654Z" fill="#afc0e0" stroke="#afc0e0" stroke-width="1.51"/><path d="M-29,426L-121,555L-25,603Z" fill="#bad7f1" stroke="#bad7f1" stroke-width="1.51"/><path d="M4,112L-34,229L89,113Z" fill="#a8c1e3" stroke="#a8c1e3" stroke-width="1.51"/><path d="M118,-2L4,112L89,113Z" fill="#97c5ea" stroke="#97c5ea" stroke-width="1.51"/><path d="M99,960L120,1052L273,955Z" fill="#90c6ec" stroke="#90c6ec" stroke-width="1.51"/><path d="M263,1053L-3,1077L481,1062Z" fill="#a5c2e4" stroke="#a5c2e4" stroke-width="1.51"/><path d="M-3,1077L120,1052L99,960Z" fill="#74caf5" stroke="#74caf5" stroke-width="1.51"/><path d="M118,-2L-8,-64L4,112Z" fill="#70cbf6" stroke="#70cbf6" stroke-width="1.51"/><path d="M373,-114L219,-177L255,-52Z" fill="#adc0e1" stroke="#adc0e1" stroke-width="1.51"/><path d="M494,-153L219,-177L373,-114Z" fill="#bdbcda" stroke="#bdbcda" stroke-width="1.51"/><path d="M1081,-178L219,-177L494,-153Z" fill="#bad8f1" stroke="#bad8f1" stroke-width="1.51"/><path d="M1555,-14L1457,-126L1476,1Z" fill="#55cdfc" stroke="#55cdfc" stroke-width="1.51"/><path d="M1476,1L1457,-126L1354,1Z" fill="#5bcdfb" stroke="#5bcdfb" stroke-width="1.51"/><path d="M-108,349L-29,426L9,340Z" fill="#bad7f1" stroke="#bad7f1" stroke-width="1.51"/><path d="M-25,603L-93,686L-7,654Z" fill="#bcc2de" stroke="#bcc2de" stroke-width="1.51"/><path d="M1552,840L1597,920L1562,662Z" fill="#8cc6ee" stroke="#8cc6ee" stroke-width="1.51"/><path d="M1562,662L1597,920L1560,571Z" fill="#afc0e0" stroke="#afc0e0" stroke-width="1.51"/><path d="M1560,571L1597,920L1555,366Z" fill="#bcc7e2" stroke="#bcc7e2" stroke-width="1.51"/><path d="M1585,-176L1555,-14L1546,120Z" fill="#55cdfc" stroke="#55cdfc" stroke-width="1.51"/><path d="M1539,1019L1474,846L1414,907Z" fill="#55cdfc" stroke="#55cdfc" stroke-width="1.51"/><path d="M1539,1019L1414,907L1420,1020Z" fill="#55cdfc" stroke="#55cdfc" stroke-width="1.51"/><path d="M1546,120L1555,-14L1476,1Z" fill="#6ecbf6" stroke="#6ecbf6" stroke-width="1.51"/><path d="M1585,-176L1546,120L1555,366Z" fill="#91c6ec" stroke="#91c6ec" stroke-width="1.51"/><path d="M1324,1076L1539,1019L1420,1020Z" fill="#5bcdfb" stroke="#5bcdfb" stroke-width="1.51"/><path d="M-4,812L-8,934L143,832Z" fill="#80c8f2" stroke="#80c8f2" stroke-width="1.51"/><path d="M-121,555L-93,686L-25,603Z" fill="#bcc7e3" stroke="#bcc7e3" stroke-width="1.51"/><path d="M-87,423L-121,555L-29,426Z" fill="#b8e3fb" stroke="#b8e3fb" stroke-width="1.51"/><path d="M-34,229L-108,349L9,340Z" fill="#bccbe7" stroke="#bccbe7" stroke-width="1.51"/><path d="M-99,227L-108,349L-34,229Z" fill="#bcc4e0" stroke="#bcc4e0" stroke-width="1.51"/><path d="M-93,932L-8,934L-4,812Z" fill="#5bcdfb" stroke="#5bcdfb" stroke-width="1.51"/><path d="M-108,349L-121,555L-87,423Z" fill="#b8e4fd" stroke="#b8e4fd" stroke-width="1.51"/><path d="M-144,105L-99,227L4,112Z" fill="#a2c2e5" stroke="#a2c2e5" stroke-width="1.51"/><path d="M4,112L-99,227L-34,229Z" fill="#b1bfdf" stroke="#b1bfdf" stroke-width="1.51"/><path d="M219,-177L83,-173L118,-2Z" fill="#89c7ee" stroke="#89c7ee" stroke-width="1.51"/><path d="M17,-115L-8,-64L118,-2Z" fill="#68cbf8" stroke="#68cbf8" stroke-width="1.51"/><path d="M83,-173L17,-115L118,-2Z" fill="#74caf5" stroke="#74caf5" stroke-width="1.51"/><path d="M-8,934L-3,1077L99,960Z" fill="#63ccf9" stroke="#63ccf9" stroke-width="1.51"/><path d="M120,1052L-3,1077L263,1053Z" fill="#85c8f0" stroke="#85c8f0" stroke-width="1.51"/><path d="M481,1062L-3,1077L1169,1080Z" fill="#bad2ed" stroke="#bad2ed" stroke-width="1.51"/><path d="M-118,1053L-3,1077L-8,934Z" fill="#55cdfc" stroke="#55cdfc" stroke-width="1.51"/><path d="M-159,774L-4,812L-93,686Z" fill="#a0c3e6" stroke="#a0c3e6" stroke-width="1.51"/><path d="M-159,774L-93,932L-4,812Z" fill="#7cc9f2" stroke="#7cc9f2" stroke-width="1.51"/><path d="M-121,555L-159,774L-93,686Z" fill="#bcbdda" stroke="#bcbdda" stroke-width="1.51"/><path d="M-144,105L-159,774L-121,555Z" fill="#b8e1f9" stroke="#b8e1f9" stroke-width="1.51"/><path d="M-144,105L-121,555L-108,349Z" fill="#bbd1ec" stroke="#bbd1ec" stroke-width="1.51"/><path d="M1555,-14L1585,-176L1457,-126Z" fill="#55cdfc" stroke="#55cdfc" stroke-width="1.51"/><path d="M1457,-126L1585,-176L1345,-173Z" fill="#55cdfc" stroke="#55cdfc" stroke-width="1.51"/><path d="M1345,-173L1585,-176L1081,-178Z" fill="#7ec9f2" stroke="#7ec9f2" stroke-width="1.51"/><path d="M1597,920L1585,-176L1555,366Z" fill="#bad7f1" stroke="#bad7f1" stroke-width="1.51"/><path d="M-99,227L-144,105L-108,349Z" fill="#bcbdda" stroke="#bcbdda" stroke-width="1.51"/><path d="M-142,-41L-144,105L4,112Z" fill="#7bc9f3" stroke="#7bc9f3" stroke-width="1.51"/><path d="M-142,-41L4,112L-8,-64Z" fill="#57cdfb" stroke="#57cdfb" stroke-width="1.51"/><path d="M-93,932L-118,1053L-8,934Z" fill="#55cdfc" stroke="#55cdfc" stroke-width="1.51"/><path d="M-159,774L-118,1053L-93,932Z" fill="#55cdfc" stroke="#55cdfc" stroke-width="1.51"/><path d="M-145,-175L-142,-41L-8,-64Z" fill="#55cdfc" stroke="#55cdfc" stroke-width="1.51"/><path d="M-144,105L-145,-175L-159,774Z" fill="#bdbedb" stroke="#bdbedb" stroke-width="1.51"/><path d="M-145,-175L-8,-64L17,-115Z" fill="#55cdfc" stroke="#55cdfc" stroke-width="1.51"/><path d="M83,-173L-145,-175L17,-115Z" fill="#55cdfc" stroke="#55cdfc" stroke-width="1.51"/><path d="M-142,-41L-145,-175L-144,105Z" fill="#55cdfc" stroke="#55cdfc" stroke-width="1.51"/><path d="M219,-177L-145,-175L83,-173Z" fill="#6dcbf7" stroke="#6dcbf7" stroke-width="1.51"/></svg>