<?xml version="1.0" encoding="utf-8"?>
<!-- Generator: Adobe Illustrator 21.0.0, SVG Export Plug-In . SVG Version: 6.00 Build 0)  -->
<svg version="1.1" id="Logo" xmlns="http://www.w3.org/2000/svg" xmlns:xlink="http://www.w3.org/1999/xlink" x="0px" y="0px"
	 viewBox="0 0 511.7 463.9" style="enable-background:new 0 0 511.7 463.9;" xml:space="preserve">
<style type="text/css">
	.st0{fill:#1D1D1B;}
	.st1{fill:#FFFFFF;}
	.st2{fill:none;stroke:#000000;stroke-width:2.2;stroke-miterlimit:10;}
</style>
<g>
	<path class="st0" d="M288.3,268.5h-60.9v-31.2h23.2c0.5,2.9,3.1,5.2,6.1,5.2c3.4,0,6.2-2.8,6.2-6.2c0-1-0.3-2-0.7-2.9l26-17.7
		L288.3,268.5L288.3,268.5z M256.8,232c2.4,0,4.3,1.9,4.3,4.3c0,2.4-1.9,4.3-4.3,4.3c-2.4,0-4.3-1.9-4.3-4.3
		C252.5,233.9,254.5,232,256.8,232 M288.3,213.2l-27.2,18.6c-1.1-1.1-2.6-1.7-4.3-1.7c-3.1,0-5.7,2.3-6.1,5.3h-23.3
		c0,0,0-10.6,0-12.4c0-5.5-4.5-9.9-9.9-9.9c-5.5,0-9.9,4.5-9.9,9.9c0,0.1,0,4,0,5.4h-30.9c0.9,2.4,1.5,4.9,1.9,7.7
		c0.4,3.1,0.8,6.8,0.9,11.1h28v15.6c0,2.1,0,5.7,0,5.7h-29.4c-0.5-3-3-5.2-6.1-5.2c-3.1,0-5.7,2.3-6.1,5.2h-24.3v-15.4
		c0-15.5-3.7-20.9-13.7-23c-1.7-0.4-5.4-0.3-5.4-0.3V214h42.1c3.9,2.3,7,5.1,9.1,8.2c0.1,0.2,0.2,0.4,0.3,0.5v-19.3
		c-2.3,3.7-5.2,6.5-9.4,8.5h-42v-15.1c6.6,0,10.9-1.5,14.2-4.4s5-7.6,4.9-14c0-1.4,0-1.5,0-1.5h24.2c0.5,2.9,3.1,5.2,6.1,5.2
		s5.6-2.2,6.1-5.2h29.5v13.9c1.9-2.4,4.4-4.4,7.5-6c3.1-1.6,6.7-2.3,10.7-2.3c10.5,0,18.7,2.6,24.7,7.7v-5.9c0-2.5,0.1-4.9,0.2-7.2
		h37.7L288.3,213.2L288.3,213.2z M176.2,175.9c0,2.3-1.9,4.3-4.3,4.3c-2.3,0-4.3-1.9-4.3-4.3c0-2.3,1.9-4.3,4.3-4.3
		C174.3,171.6,176.2,173.5,176.2,175.9 M167.7,269.5c0-2.4,1.9-4.3,4.3-4.3c2.4,0,4.3,1.9,4.3,4.3s-1.9,4.3-4.3,4.3
		C169.7,273.8,167.7,271.9,167.7,269.5 M422.9,223.9c2.1,3.2,3.4,7,4.3,11.4v-41c-0.6,3.1-1.4,5.9-2.5,8.2
		c-2.2,4.9-5.9,8.5-10.9,10.9h-42.3v-14.8c6.6,0,11.1-1.5,14.4-4.4s4.5-7.7,4.5-14.1v-7.8c0-5.3-4.2-9.6-9.5-9.6s-9.5,4.3-9.5,9.6
		c0,1.1,0,7.1-0.1,8.2v5.6h-29.4v17.8h-36.6v-27.2c0-1.2-0.1-4.6-0.1-5.4c0-4.7-3.8-8.5-8.5-8.5c-4.7,0-8.5,3.8-8.5,8.5
		c0,0.7,0.1,3,0.1,3.6h-37.6c0.3-3.5,0.7-6.8,1.3-10h-44.6v10h-29.5c-0.5-3-3-5.2-6.1-5.2c-3.1,0-5.7,2.3-6.1,5.2h-24.1v-2.6
		c0-5.3-4.3-9.6-9.6-9.6c-5.3,0-9.6,4.3-9.6,9.6c0,1,0.1,12.1,0.1,12.1H85.3v60.2h37.2v27.3c0,5.3,4.3,9.6,9.6,9.6
		c5.3,0,9.6-4.3,9.6-9.6v-1.4H166c0.5,2.9,3.1,5.2,6.1,5.2c3.1,0,5.6-2.3,6.1-5.2h29.4v0.9c0,5.5,4.5,10,10,10s10-4.5,10-10
		c0-0.3-0.1-0.6-0.1-0.9c0,0,0,0,0-0.1h60.9c0,0,0,1.7,0,2.4c0,4.7,3.8,8.5,8.5,8.5c4.7,0,8.5-3.8,8.5-8.5c0-0.4,0.1-3.2,0.1-4.4
		v-33.1h36.6v11h29.5v19.3v6.4c0,5.3,4.2,9.6,9.5,9.6s9.5-4.3,9.5-9.6c0-0.7,0-8.1,0-12.4v-4.5c0-15.9-4.1-21.2-11.4-23.1
		c-2.3-0.6-7.6-0.4-7.6-0.4v-16.1h42.3C418,217.8,420.8,220.6,422.9,223.9"/>
	<g>
		<path class="st0" d="M68.5,124.6c0-7.3,5.6-12.4,13.3-12.4c4.7,0,8.3,1.7,10.7,4.8l-5.1,4.5c-1.4-1.8-3.1-2.8-5.2-2.8
			c-3.3,0-5.6,2.3-5.6,5.9c0,3.6,2.2,5.9,5.6,5.9c2.1,0,3.8-1,5.2-2.8l5.1,4.5c-2.3,3.1-6,4.8-10.7,4.8
			C74.1,137.1,68.5,131.9,68.5,124.6z"/>
		<path class="st0" d="M93.3,124.6c0-7.2,5.7-12.4,13.4-12.4s13.4,5.2,13.4,12.4c0,7.2-5.7,12.4-13.4,12.4S93.3,131.8,93.3,124.6z
			 M112.1,124.6c0-3.7-2.4-5.9-5.3-5.9c-2.9,0-5.4,2.2-5.4,5.9s2.4,5.9,5.3,5.9C109.6,130.5,112.1,128.3,112.1,124.6z"/>
		<path class="st0" d="M144.3,136.5l-0.1-10.8l-5.2,8.7h-3.5l-5.1-8.3v10.5h-7.3v-23.9h6.6l7.7,12.7l7.5-12.7h6.6l0.1,23.8H144.3z"
			/>
		<path class="st0" d="M177.8,121.7c0,5.5-4.2,9-10.8,9h-3.4v5.8h-8v-23.8h11.5C173.6,112.7,177.8,116.2,177.8,121.7z M169.7,121.7
			c0-1.7-1.1-2.8-3.3-2.8h-2.9v5.6h2.9C168.7,124.5,169.7,123.4,169.7,121.7z"/>
		<path class="st0" d="M179.9,125.8v-13.1h8v12.9c0,3.6,1.4,5,3.6,5c2.2,0,3.6-1.4,3.6-5v-12.9h7.9v13.1c0,7.1-4.3,11.3-11.6,11.3
			S179.9,133,179.9,125.8z"/>
		<path class="st0" d="M211.6,119h-7v-6.2h22v6.2h-7v17.6h-8V119z"/>
		<path class="st0" d="M261.7,130.6h-2.2v6h-8v-23.9H263c6.6,0,10.8,3.5,10.8,9c0,3.4-1.6,6-4.5,7.5l5,7.3h-8.6L261.7,130.6z
			 M262.5,118.9h-2.9v5.6h2.9c2.2,0,3.3-1.1,3.3-2.8C265.8,120,264.7,118.9,262.5,118.9z"/>
		<path class="st0" d="M285.6,134.6l2.6-5.8c2.2,1.3,5.2,2.2,7.9,2.2c2.3,0,3.1-0.5,3.1-1.3c0-3-13.2-0.6-13.2-9.5
			c0-4.4,3.7-8,11.1-8c3.2,0,6.5,0.7,9,2.1l-2.4,5.8c-2.3-1.2-4.6-1.8-6.6-1.8c-2.3,0-3.1,0.7-3.1,1.5c0,2.9,13.2,0.5,13.2,9.2
			c0,4.4-3.7,8-11.1,8C292,137.1,288,136.1,285.6,134.6z"/>
		<path class="st0" d="M308.5,124.6c0-7.3,5.6-12.4,13.3-12.4c4.7,0,8.3,1.7,10.7,4.8l-5.1,4.5c-1.4-1.8-3.1-2.8-5.2-2.8
			c-3.3,0-5.6,2.3-5.6,5.9c0,3.6,2.2,5.9,5.6,5.9c2.1,0,3.8-1,5.2-2.8l5,4.6c-2.3,3.1-6,4.8-10.7,4.8
			C314.1,137.1,308.5,131.9,308.5,124.6z"/>
		<path class="st0" d="M393,112.7v23.8h-6.6l-9-10.8v10.8h-7.8v-23.8h6.6l9,10.8v-10.8H393z"/>
		<path class="st0" d="M395.9,124.6c0-7.3,5.6-12.4,13.3-12.4c4.7,0,8.3,1.7,10.7,4.8l-5.1,4.5c-1.4-1.8-3.1-2.8-5.2-2.8
			c-3.3,0-5.6,2.3-5.6,5.9c0,3.6,2.2,5.9,5.6,5.9c2.1,0,3.8-1,5.2-2.8l5.1,4.5c-2.3,3.1-6,4.8-10.7,4.8
			C401.5,137.1,395.9,131.9,395.9,124.6z"/>
		<path class="st0" d="M441.9,130.5v6.1h-19.8v-23.9h19.3v6.1h-11.5v2.8H440v5.8h-10.1v3.1H441.9z"/>
	</g>
	<g>
		<path class="st0" d="M139.2,305.5h11.3v24.8h15.2v8.8h-26.5V305.5z"/>
		<path class="st0" d="M199,336.4l3.6-8.3c3.2,1.9,7.4,3.1,11.1,3.1c3.2,0,4.4-0.7,4.4-1.8c0-4.2-18.6-0.8-18.6-13.3
			c0-6.2,5.2-11.3,15.6-11.3c4.5,0,9.2,1,12.7,2.9l-3.4,8.2c-3.3-1.7-6.4-2.5-9.4-2.5c-3.3,0-4.4,1-4.4,2.1c0,4,18.6,0.7,18.6,13.1
			c0,6.1-5.2,11.3-15.6,11.3C208,339.9,202.4,338.5,199,336.4z"/>
		<path class="st0" d="M265.8,329.8c0,5.9-4.9,9.3-14.2,9.3h-18.9v-33.6h18c9.3,0,13.6,3.7,13.6,8.8c0,3.1-1.6,5.7-4.7,7.2
			C263.5,323,265.8,325.8,265.8,329.8z M243.8,313.4v5h5.3c2.5,0,3.7-0.9,3.7-2.5s-1.2-2.5-3.7-2.5H243.8z M254.4,328.5
			c0-1.7-1.2-2.6-3.7-2.6h-6.8v5.3h6.8C253.1,331.2,254.4,330.2,254.4,328.5z"/>
		<path class="st0" d="M309.5,333.2h-12.8l-2.3,5.9h-11.5l14.7-33.6h11.1l14.7,33.6h-11.7L309.5,333.2z M306.3,325.1l-3.3-8.4
			l-3.3,8.4H306.3z"/>
		<path class="st0" d="M358.4,305.5v33.6h-9.3l-12.8-15.3v15.3h-11v-33.6h9.3l12.8,15.3v-15.3L358.4,305.5L358.4,305.5z"/>
	</g>
	<path class="st0" d="M251.5,124h-4.1c-0.3-1.2-1.4-2.1-2.7-2.1s-2.4,0.9-2.7,2.1h-4.5v-5.2h11.4v-6h-19.3v23.8h19.8v-6.1h-11.8
		v-5.1h4.5c0.3,1.3,1.4,2.2,2.7,2.2c1.4,0,2.4-1,2.7-2.2h4"/>
</g>
<path class="st0" d="M202.3,321.4h-11.1c-0.4-1.7-1.9-3-3.6-3s-3.2,1.3-3.6,3h-6V314h15.1v-8.5h-25.5v33.6h26.1v-8.6H178v-7.2h6
	c0.4,1.8,1.8,3.1,3.6,3.1s3.2-1.4,3.6-3.1l11.6-0.2"/>
<path class="st1" d="M270.4,293.7c0-2.3,1.9-4.1,4.3-4.1c2.4,0,4.3,1.9,4.3,4.1c0,2.3-1.9,4.1-4.3,4.1
	C272.3,297.8,270.4,296,270.4,293.7"/>
<path class="st0" d="M273.2,299.6v5.1h-4.4V339h11v-34.3h-4.7v-5.1c2.7-0.5,4.8-3,4.8-6c0-3.3-2.6-6-5.8-6c-3.2,0-5.8,2.7-5.8,6
	C268.4,296.7,270.5,299.2,273.2,299.6"/>
<path class="st0" d="M369.5,124h-4.9c-0.3-1.2-1.4-2.1-2.7-2.1c-1.3,0-2.4,0.9-2.7,2.1h-4.5v-5.2h11.4v-6h-19.3v23.8h19.7v-6.1
	h-11.8v-5.1h4.5c0.3,1.3,1.4,2.2,2.7,2.2c1.4,0,2.4-1,2.7-2.2h4.8"/>
<path class="st0" d="M336,105.9c0-1.5,1.2-2.7,2.7-2.7s2.7,1.2,2.7,2.7s-1.2,2.7-2.7,2.7S336,107.4,336,105.9"/>
<path class="st0" d="M338.1,109.8v2.9h-3.4v23.8h8v-23.8h-3.3v-2.9c1.9-0.3,3.3-2,3.3-3.9c0-2.2-1.8-4-4-4s-4,1.8-4,4
	C334.7,107.8,336.2,109.5,338.1,109.8"/>
<polyline class="st2" points="43,314.5 43,41.1 251.5,41.1 304,40.9 "/>
<polyline class="st2" points="358.1,25 332.5,42.7 332.5,38.6 332.5,10.9 358.1,25 470,25 470,415.6 43,415.6 43,330.1 "/>
<line class="st2" x1="332.5" y1="14" x2="304" y2="14.2"/>
<polyline class="st2" points="304.2,56.8 304,39 332.5,38.9 "/>
<line class="st2" x1="369.6" y1="25" x2="369.6" y2="56.8"/>
<polyline class="st2" points="303.3,56.8 317.9,56.8 322.1,61.9 327.6,55.2 333.6,62 339.8,54.7 345.1,62.1 349.7,56.8 359.8,56.8 
	370.7,56.8 "/>
<line class="st2" x1="304.2" y1="56.8" x2="304.2" y2="78.7"/>
<line class="st2" x1="287.9" y1="78.7" x2="320.5" y2="78.7"/>
<line class="st2" x1="316.2" y1="82" x2="291.4" y2="82"/>
<line class="st2" x1="312" y1="85.3" x2="295.4" y2="85.3"/>
<path class="st2" d="M322.7,56.8"/>
<g>
	<path d="M336.7,16.4v1.9h1.8v0.5h-1.8v1.9h-0.5v-1.9h-1.8v-0.5h1.8v-1.9H336.7z"/>
	<path d="M338.5,34.2v0.5h-4.1v-0.5H338.5z"/>
</g>
<circle cx="301.2" cy="14.2" r="5.3"/>
<circle cx="393" cy="25" r="5.3"/>
<line class="st2" x1="30.4" y1="330.3" x2="54.4" y2="330.3"/>
<line class="st2" x1="30.6" y1="314.5" x2="54.6" y2="314.5"/>
<path class="st2" d="M322.7,56.8"/>
</svg>
