<svg id="Layer_1" data-name="Layer 1" xmlns="http://www.w3.org/2000/svg" viewBox="0 0 2165.87 3603.41"><defs><style>.cls-1{fill:none;}.cls-1,.cls-2{stroke:#000;stroke-linecap:round;stroke-miterlimit:10;stroke-width:6px;}</style></defs><title>haecksen-circuit</title><path d="M1649.72,3521.05a12,12,0,1,1,12,12A12,12,0,0,1,1649.72,3521.05Z" transform="translate(-1238.72 -120.64)"/><path d="M2249.72,3521.05a12,12,0,1,1,12,12A12,12,0,0,1,2249.72,3521.05Z" transform="translate(-1238.72 -120.64)"/><path d="M1449.72,3121.05a12,12,0,1,1,12,12A12,12,0,0,1,1449.72,3121.05Z" transform="translate(-1238.72 -120.64)"/><path d="M1449.72,3521.05a12,12,0,1,1,12,12A12,12,0,0,1,1449.72,3521.05Z" transform="translate(-1238.72 -120.64)"/><path class="cls-1" d="M2461.72,3121.05" transform="translate(-1238.72 -120.64)"/><path class="cls-1" d="M2316.57,3021.05c0-20-20-20-20,0,0-20-20-20-20,0,0-20-20-20-20,0,0-20-20-20-20,0" transform="translate(-1238.72 -120.64)"/><path class="cls-1" d="M2166.13,3021.05h71" transform="translate(-1238.72 -120.64)"/><path class="cls-1" d="M2323.13,3021.05h929.69" transform="translate(-1238.72 -120.64)"/><path class="cls-1" d="M2632.42,3053.35c-32.61-42.82,15.79-91.21,58.6-58.6C2723.63,3037.56,2675.23,3086,2632.42,3053.35Z" transform="translate(-1238.72 -120.64)"/><path class="cls-1" d="M3315.55,3227.61a40,40,0,1,1,40,40A40,40,0,0,1,3315.55,3227.61Z" transform="translate(-1238.72 -120.64)"/><path class="cls-1" d="M3321.59,3227.61h80" transform="translate(-1238.72 -120.64)"/><path class="cls-1" d="M3252.82,3021.05l102.73,166.56" transform="translate(-1238.72 -120.64)"/><path class="cls-1" d="M3359,3274v247.05" transform="translate(-1238.72 -120.64)"/><path class="cls-1" d="M3359,3521.05H1461.72" transform="translate(-1238.72 -120.64)"/><path class="cls-1" d="M1461.72,3521.05v-448" transform="translate(-1238.72 -120.64)"/><path class="cls-1" d="M1904.72,2981.05v80" transform="translate(-1238.72 -120.64)"/><path class="cls-1" d="M1932.72,2981.05v80" transform="translate(-1238.72 -120.64)"/><path class="cls-1" d="M1568.51,3021.05h336.21" transform="translate(-1238.72 -120.64)"/><path class="cls-1" d="M1932.72,3021.05h229" transform="translate(-1238.72 -120.64)"/><path class="cls-1" d="M2161.72,3021.05" transform="translate(-1238.72 -120.64)"/><path d="M2095.72,3521.05a12,12,0,1,1,12,12A12,12,0,0,1,2095.72,3521.05Z" transform="translate(-1238.72 -120.64)"/><path class="cls-1" d="M2107.72,3521.05v46" transform="translate(-1238.72 -120.64)"/><path class="cls-1" d="M2095.72,3579.05a12,12,0,1,1,12,12A12,12,0,0,1,2095.72,3579.05Z" transform="translate(-1238.72 -120.64)"/><path d="M1449.72,3254.05a12,12,0,1,1,12,12A12,12,0,0,1,1449.72,3254.05Z" transform="translate(-1238.72 -120.64)"/><path class="cls-1" d="M1461.72,3254.05h-76v-30" transform="translate(-1238.72 -120.64)"/><path class="cls-1" d="M1373.72,3212.05a12,12,0,1,1,12,12A12,12,0,0,1,1373.72,3212.05Z" transform="translate(-1238.72 -120.64)"/><path d="M1624.72,3021.05a12,12,0,1,1,12,12A12,12,0,0,1,1624.72,3021.05Z" transform="translate(-1238.72 -120.64)"/><path class="cls-1" d="M1636.72,3021.05v-49" transform="translate(-1238.72 -120.64)"/><path class="cls-1" d="M1624.72,2960.05a12,12,0,1,1,12,12A12,12,0,0,1,1624.72,2960.05Z" transform="translate(-1238.72 -120.64)"/><path class="cls-1" d="M1661.72,3721.05v-200" transform="translate(-1238.72 -120.64)"/><path class="cls-1" d="M2261.72,3521.05v94" transform="translate(-1238.72 -120.64)"/><path class="cls-1" d="M1241.72,3451.05v-80h40v80Z" transform="translate(-1238.72 -120.64)"/><path class="cls-1" d="M1261.72,3521.05V3196.87" transform="translate(-1238.72 -120.64)"/><path class="cls-1" d="M1261.72,3196.87l200-75.82" transform="translate(-1238.72 -120.64)"/><path d="M1337.72,3197.49a12,12,0,1,1,12,12A12,12,0,0,1,1337.72,3197.49Z" transform="translate(-1238.72 -120.64)"/><path class="cls-1" d="M1349.72,3197.49v-59" transform="translate(-1238.72 -120.64)"/><path class="cls-1" d="M1337.72,3126.49a12,12,0,1,1,12,12A12,12,0,0,1,1337.72,3126.49Z" transform="translate(-1238.72 -120.64)"/><path class="cls-1" d="M1373.72,3521.05l-10,20-20-40-20,40-20-40-20,40-10-20" transform="translate(-1238.72 -120.64)"/><path class="cls-1" d="M1461.72,3521.05h-88" transform="translate(-1238.72 -120.64)"/><path class="cls-1" d="M1273.72,3521.05h-12" transform="translate(-1238.72 -120.64)"/><path class="cls-1" d="M3085.58,2981.05v80" transform="translate(-1238.72 -120.64)"/><path class="cls-1" d="M3113.58,2981.05v80" transform="translate(-1238.72 -120.64)"/><path class="cls-1" d="M2642.58,3021.05h443" transform="translate(-1238.72 -120.64)"/><path class="cls-1" d="M3113.58,3021.05h139.24" transform="translate(-1238.72 -120.64)"/><path class="cls-1" d="M2410.34,123.64,3099,3021.9" transform="translate(-1238.72 -120.64)"/><path class="cls-1" d="M2410.34,123.64l-765,2897.81" transform="translate(-1238.72 -120.64)"/><path d="M2127.45,2626.89a9.3,9.3,0,1,1,9.31-9.3A9.3,9.3,0,0,1,2127.45,2626.89Z" transform="translate(-1238.72 -120.64)"/><path d="M1972.44,2316.87a9.3,9.3,0,1,1,9.3-9.3A9.3,9.3,0,0,1,1972.44,2316.87Z" transform="translate(-1238.72 -120.64)"/><path d="M2127.45,2316.87a9.3,9.3,0,1,1,9.31-9.3A9.3,9.3,0,0,1,2127.45,2316.87Z" transform="translate(-1238.72 -120.64)"/><path d="M2127.45,2626.89a9.3,9.3,0,1,1,9.31-9.3A9.3,9.3,0,0,1,2127.45,2626.89Z" transform="translate(-1238.72 -120.64)"/><path d="M2205,2626.89a9.3,9.3,0,1,1,9.3-9.3A9.3,9.3,0,0,1,2205,2626.89Z" transform="translate(-1238.72 -120.64)"/><path d="M2282.47,2704.4a9.3,9.3,0,1,1,9.3-9.3A9.3,9.3,0,0,1,2282.47,2704.4Z" transform="translate(-1238.72 -120.64)"/><path d="M2282.47,2781.91a9.31,9.31,0,1,1,9.3-9.31A9.3,9.3,0,0,1,2282.47,2781.91Z" transform="translate(-1238.72 -120.64)"/><path d="M2437.48,2781.91a9.31,9.31,0,1,1,9.3-9.31A9.3,9.3,0,0,1,2437.48,2781.91Z" transform="translate(-1238.72 -120.64)"/><path d="M2282.47,2704.4a9.3,9.3,0,1,1,9.3-9.3A9.3,9.3,0,0,1,2282.47,2704.4Z" transform="translate(-1238.72 -120.64)"/><path d="M2205,2626.89a9.3,9.3,0,1,1,9.3-9.3A9.3,9.3,0,0,1,2205,2626.89Z" transform="translate(-1238.72 -120.64)"/><path d="M2205,1851.83a9.3,9.3,0,1,1,9.3-9.3A9.3,9.3,0,0,1,2205,1851.83Z" transform="translate(-1238.72 -120.64)"/><path d="M2515,1851.83a9.3,9.3,0,1,1,9.3-9.3A9.3,9.3,0,0,1,2515,1851.83Z" transform="translate(-1238.72 -120.64)"/><path class="cls-1" d="M2127.45,2532.34l-31-62" transform="translate(-1238.72 -120.64)"/><path d="M2127.45,2541.64a9.3,9.3,0,1,1,9.31-9.3A9.31,9.31,0,0,1,2127.45,2541.64Z" transform="translate(-1238.72 -120.64)"/><path d="M2127.45,2479.63a9.3,9.3,0,1,1,9.31-9.3A9.3,9.3,0,0,1,2127.45,2479.63Z" transform="translate(-1238.72 -120.64)"/><path class="cls-1" d="M2127.45,2617.59v-85.25" transform="translate(-1238.72 -120.64)"/><path class="cls-1" d="M2127.45,2470.33V2307.57" transform="translate(-1238.72 -120.64)"/><path class="cls-1" d="M2127.45,2307.57h-155" transform="translate(-1238.72 -120.64)"/><path class="cls-1" d="M1941.44,1962.67h62" transform="translate(-1238.72 -120.64)"/><path class="cls-1" d="M1941.44,1941h62" transform="translate(-1238.72 -120.64)"/><path class="cls-1" d="M1972.44,2307.57v-344.9" transform="translate(-1238.72 -120.64)"/><path class="cls-1" d="M1972.44,1941v-98.43" transform="translate(-1238.72 -120.64)"/><path class="cls-1" d="M2043,1811.53v62" transform="translate(-1238.72 -120.64)"/><path class="cls-1" d="M2021.27,1827v31" transform="translate(-1238.72 -120.64)"/><path class="cls-1" d="M1972.44,1842.53h48.83" transform="translate(-1238.72 -120.64)"/><path class="cls-1" d="M2043,1842.53h162" transform="translate(-1238.72 -120.64)"/><path class="cls-1" d="M2220.46,2444.75h-31v-62h31Z" transform="translate(-1238.72 -120.64)"/><path class="cls-1" d="M2205,1842.53v775.06" transform="translate(-1238.72 -120.64)"/><path class="cls-1" d="M2205,2617.59h-77.51" transform="translate(-1238.72 -120.64)"/><path class="cls-1" d="M2747.5,1842.53v97.66" transform="translate(-1238.72 -120.64)"/><path class="cls-1" d="M2747.5,1971.19v336.38" transform="translate(-1238.72 -120.64)"/><path class="cls-1" d="M2763,1971.19h-31" transform="translate(-1238.72 -120.64)"/><path class="cls-1" d="M2763,1940.19h-31l15.5,31Z" transform="translate(-1238.72 -120.64)"/><path class="cls-1" d="M2770.76,1960.34l10.85,10.85" transform="translate(-1238.72 -120.64)"/><path class="cls-1" d="M2781.61,1963.44v7.75h-7.75" transform="translate(-1238.72 -120.64)"/><path class="cls-1" d="M2775.41,1941.74l10.85,10.85" transform="translate(-1238.72 -120.64)"/><path class="cls-1" d="M2786.26,1944.84v7.75h-7.75" transform="translate(-1238.72 -120.64)"/><path class="cls-1" d="M2670,2323.07h-62v-31h62Z" transform="translate(-1238.72 -120.64)"/><path class="cls-1" d="M2747.5,2307.57H2670" transform="translate(-1238.72 -120.64)"/><path class="cls-1" d="M2608,2307.57h-15.5" transform="translate(-1238.72 -120.64)"/><path class="cls-1" d="M2608,2667.2h-31v-62h31Z" transform="translate(-1238.72 -120.64)"/><path class="cls-1" d="M2592.49,2307.57v465" transform="translate(-1238.72 -120.64)"/><path class="cls-1" d="M2592.49,2772.6h-310" transform="translate(-1238.72 -120.64)"/><path class="cls-1" d="M2282.47,2772.6v-77.5" transform="translate(-1238.72 -120.64)"/><path class="cls-1" d="M2282.47,2695.1H2515" transform="translate(-1238.72 -120.64)"/><path class="cls-1" d="M2515,2063.42a31,31,0,1,1,31-31A31,31,0,0,1,2515,2063.42Z" transform="translate(-1238.72 -120.64)"/><path class="cls-1" d="M2536.9,2010.5l-43.83,43.84" transform="translate(-1238.72 -120.64)"/><path class="cls-1" d="M2493.07,2010.5l43.83,43.84" transform="translate(-1238.72 -120.64)"/><path class="cls-1" d="M2515,2695.1V2063.42" transform="translate(-1238.72 -120.64)"/><path class="cls-1" d="M2515,2001.42V1842.53" transform="translate(-1238.72 -120.64)"/><path class="cls-1" d="M2613.42,1842.53l62-31" transform="translate(-1238.72 -120.64)"/><path d="M2613.42,1851.83a9.3,9.3,0,1,1,9.3-9.3A9.3,9.3,0,0,1,2613.42,1851.83Z" transform="translate(-1238.72 -120.64)"/><path d="M2675.42,1851.83a9.3,9.3,0,1,1,9.3-9.3A9.3,9.3,0,0,1,2675.42,1851.83Z" transform="translate(-1238.72 -120.64)"/><path class="cls-1" d="M2515,1842.53h98.43" transform="translate(-1238.72 -120.64)"/><path class="cls-1" d="M2675.42,1842.53h72.08" transform="translate(-1238.72 -120.64)"/><path d="M1972.44,2048.7a9.3,9.3,0,1,1,9.3-9.3A9.31,9.31,0,0,1,1972.44,2048.7Z" transform="translate(-1238.72 -120.64)"/><path class="cls-1" d="M1972.44,2039.4h-38" transform="translate(-1238.72 -120.64)"/><path class="cls-1" d="M1925.16,2048.7a9.3,9.3,0,1,1,9.3-9.3A9.31,9.31,0,0,1,1925.16,2048.7Z" transform="translate(-1238.72 -120.64)"/><path d="M2205,2006.07a9.3,9.3,0,1,1,9.3-9.3A9.3,9.3,0,0,1,2205,2006.07Z" transform="translate(-1238.72 -120.64)"/><path class="cls-1" d="M2205,1996.77h44.18v-25.58" transform="translate(-1238.72 -120.64)"/><path class="cls-1" d="M2249.14,1971.19a9.3,9.3,0,1,1,9.3-9.3A9.3,9.3,0,0,1,2249.14,1971.19Z" transform="translate(-1238.72 -120.64)"/><path d="M2747.5,2067.3a9.3,9.3,0,1,1,9.3-9.3A9.3,9.3,0,0,1,2747.5,2067.3Z" transform="translate(-1238.72 -120.64)"/><path class="cls-1" d="M2747.5,2058h58.13v-41.85" transform="translate(-1238.72 -120.64)"/><path class="cls-1" d="M2805.63,2016.15a9.31,9.31,0,1,1,9.3-9.3A9.31,9.31,0,0,1,2805.63,2016.15Z" transform="translate(-1238.72 -120.64)"/><path d="M2400.28,2704.4a9.3,9.3,0,1,1,9.3-9.3A9.3,9.3,0,0,1,2400.28,2704.4Z" transform="translate(-1238.72 -120.64)"/><path class="cls-1" d="M2400.28,2695.1v-43.4h38" transform="translate(-1238.72 -120.64)"/><path class="cls-1" d="M2447.56,2661a9.31,9.31,0,1,1,9.3-9.3A9.31,9.31,0,0,1,2447.56,2661Z" transform="translate(-1238.72 -120.64)"/><path d="M2515,2237.81a9.3,9.3,0,1,1,9.3-9.3A9.3,9.3,0,0,1,2515,2237.81Z" transform="translate(-1238.72 -120.64)"/><path class="cls-1" d="M2515,2228.51h-49.61" transform="translate(-1238.72 -120.64)"/><path class="cls-1" d="M2456.08,2237.81a9.3,9.3,0,1,1,9.3-9.3A9.3,9.3,0,0,1,2456.08,2237.81Z" transform="translate(-1238.72 -120.64)"/><path d="M1972.44,2175.81a9.3,9.3,0,1,1,9.3-9.3A9.31,9.31,0,0,1,1972.44,2175.81Z" transform="translate(-1238.72 -120.64)"/><path class="cls-1" d="M1972.44,2166.51h-57.35v18.6" transform="translate(-1238.72 -120.64)"/><path class="cls-1" d="M1915.09,2203.71a9.3,9.3,0,1,1,9.3-9.3A9.3,9.3,0,0,1,1915.09,2203.71Z" transform="translate(-1238.72 -120.64)"/><path d="M2747.5,2153.33a9.3,9.3,0,1,1,9.3-9.3A9.3,9.3,0,0,1,2747.5,2153.33Z" transform="translate(-1238.72 -120.64)"/><path class="cls-1" d="M2747.5,2144h31.78v-27.9" transform="translate(-1238.72 -120.64)"/><path class="cls-1" d="M2779.28,2116.13a9.3,9.3,0,1,1,9.3-9.3A9.3,9.3,0,0,1,2779.28,2116.13Z" transform="translate(-1238.72 -120.64)"/><path class="cls-1" d="M2270.07,2958.62a31,31,0,1,1,31-31A31,31,0,0,1,2270.07,2958.62Z" transform="translate(-1238.72 -120.64)"/><path class="cls-1" d="M2292,2905.7l-43.83,43.84" transform="translate(-1238.72 -120.64)"/><path class="cls-1" d="M2248.15,2905.7l43.83,43.84" transform="translate(-1238.72 -120.64)"/><path class="cls-1" d="M2437.48,2927.62H2301.07" transform="translate(-1238.72 -120.64)"/><path class="cls-1" d="M2239.06,2927.62H2127.45" transform="translate(-1238.72 -120.64)"/><path class="cls-1" d="M2127.45,2927.62v-310" transform="translate(-1238.72 -120.64)"/><path d="M2127.45,2846.24a9.31,9.31,0,1,1,9.31-9.31A9.31,9.31,0,0,1,2127.45,2846.24Z" transform="translate(-1238.72 -120.64)"/><path class="cls-1" d="M2127.45,2836.93h-33.32V2878" transform="translate(-1238.72 -120.64)"/><path class="cls-1" d="M2094.13,2896.61a9.3,9.3,0,1,1,9.3-9.3A9.3,9.3,0,0,1,2094.13,2896.61Z" transform="translate(-1238.72 -120.64)"/><path class="cls-1" d="M2127.45,2617.59h-155" transform="translate(-1238.72 -120.64)"/><path class="cls-1" d="M2003.45,2413.75h-62V2402.9h62Z" transform="translate(-1238.72 -120.64)"/><path class="cls-2" d="M2003.45,2389.72h-62v-10.85h62Z" transform="translate(-1238.72 -120.64)"/><path class="cls-1" d="M1972.44,2617.59V2416.08" transform="translate(-1238.72 -120.64)"/><path class="cls-1" d="M1972.44,2378.87v-71.3" transform="translate(-1238.72 -120.64)"/><path class="cls-1" d="M2205,2617.59v77.51" transform="translate(-1238.72 -120.64)"/><path class="cls-1" d="M2205,2695.1h77.51" transform="translate(-1238.72 -120.64)"/><path class="cls-1" d="M2468.48,2888.86h-62V2878h62Z" transform="translate(-1238.72 -120.64)"/><path class="cls-2" d="M2468.48,2864.84h-62V2854h62Z" transform="translate(-1238.72 -120.64)"/><path class="cls-1" d="M2437.48,2772.6V2854" transform="translate(-1238.72 -120.64)"/><path class="cls-1" d="M2437.48,2891.19v36.43" transform="translate(-1238.72 -120.64)"/><path d="M2272.62,1185.88a6.41,6.41,0,1,1-6.41,6.41A6.41,6.41,0,0,1,2272.62,1185.88Z" transform="translate(-1238.72 -120.64)"/><path d="M2272.62,1506.34a6.41,6.41,0,1,1-6.41,6.41A6.41,6.41,0,0,1,2272.62,1506.34Z" transform="translate(-1238.72 -120.64)"/><path d="M2486.26,1079.06a6.41,6.41,0,1,1-6.41,6.41A6.4,6.4,0,0,1,2486.26,1079.06Z" transform="translate(-1238.72 -120.64)"/><path d="M2272.62,1079.06a6.41,6.41,0,1,1-6.41,6.41A6.41,6.41,0,0,1,2272.62,1079.06Z" transform="translate(-1238.72 -120.64)"/><path d="M2699.9,1452.93a6.41,6.41,0,1,1-6.41,6.41A6.41,6.41,0,0,1,2699.9,1452.93Z" transform="translate(-1238.72 -120.64)"/><path d="M2539.67,1079.06a6.41,6.41,0,1,1-6.41,6.41A6.4,6.4,0,0,1,2539.67,1079.06Z" transform="translate(-1238.72 -120.64)"/><path class="cls-1" d="M2581.33,1598.2a21.37,21.37,0,1,1-21.37,21.37A21.37,21.37,0,0,1,2581.33,1598.2Z" transform="translate(-1238.72 -120.64)"/><path class="cls-1" d="M2566.22,1634.67l30.21-30.21" transform="translate(-1238.72 -120.64)"/><path class="cls-1" d="M2596.43,1634.67l-30.21-30.21" transform="translate(-1238.72 -120.64)"/><path class="cls-1" d="M2699.9,1619.57h-97.21" transform="translate(-1238.72 -120.64)"/><path class="cls-1" d="M2560,1619.57h-73.7" transform="translate(-1238.72 -120.64)"/><path class="cls-1" d="M2486.26,1700.22c10.68,0,10.68-10.68,0-10.68,10.68,0,10.68-10.69,0-10.69,10.68,0,10.68-10.68,0-10.68,10.68,0,10.68-10.68,0-10.68" transform="translate(-1238.72 -120.64)"/><path class="cls-1" d="M2486.26,1619.57v37.92" transform="translate(-1238.72 -120.64)"/><path class="cls-1" d="M2486.26,1700.22v26.17" transform="translate(-1238.72 -120.64)"/><path class="cls-1" d="M2420.56,1705a21.37,21.37,0,1,1-21.36,21.37A21.37,21.37,0,0,1,2420.56,1705Z" transform="translate(-1238.72 -120.64)"/><path class="cls-1" d="M2420.56,1705v42.73" transform="translate(-1238.72 -120.64)"/><path class="cls-1" d="M2486.26,1726.39h-44.33" transform="translate(-1238.72 -120.64)"/><path class="cls-1" d="M2399.2,1726.39H2272.62" transform="translate(-1238.72 -120.64)"/><path class="cls-1" d="M2272.62,1726.39V1085.47" transform="translate(-1238.72 -120.64)"/><path class="cls-1" d="M2272.62,1085.47h267.05" transform="translate(-1238.72 -120.64)"/><path class="cls-1" d="M2561,1322.07H2518.3" transform="translate(-1238.72 -120.64)"/><path class="cls-1" d="M2561,1337H2518.3" transform="translate(-1238.72 -120.64)"/><path class="cls-1" d="M2539.67,1085.47v236.6" transform="translate(-1238.72 -120.64)"/><path class="cls-1" d="M2539.67,1337v122.31" transform="translate(-1238.72 -120.64)"/><path class="cls-1" d="M2611.77,1459.34l5.34,10.68,10.68-21.36,10.68,21.36,10.69-21.36,10.68,21.36,5.34-10.68" transform="translate(-1238.72 -120.64)"/><path class="cls-1" d="M2539.67,1459.34h72.1" transform="translate(-1238.72 -120.64)"/><path class="cls-1" d="M2665.18,1459.34h34.72" transform="translate(-1238.72 -120.64)"/><path class="cls-1" d="M2678.53,1502.6h42.73v7.48h-42.73Z" transform="translate(-1238.72 -120.64)"/><path class="cls-2" d="M2678.53,1519.16h42.73v7.47h-42.73Z" transform="translate(-1238.72 -120.64)"/><path class="cls-1" d="M2699.9,1459.34V1501" transform="translate(-1238.72 -120.64)"/><path class="cls-1" d="M2699.9,1526.63v92.94" transform="translate(-1238.72 -120.64)"/><path d="M2272.62,1424.09a6.41,6.41,0,1,1-6.41,6.41A6.41,6.41,0,0,1,2272.62,1424.09Z" transform="translate(-1238.72 -120.64)"/><path class="cls-1" d="M2272.62,1430.5h-24.57" transform="translate(-1238.72 -120.64)"/><path class="cls-1" d="M2241.64,1424.09a6.41,6.41,0,1,1-6.41,6.41A6.41,6.41,0,0,1,2241.64,1424.09Z" transform="translate(-1238.72 -120.64)"/><path d="M2415.22,1079.06a6.41,6.41,0,1,1-6.41,6.41A6.41,6.41,0,0,1,2415.22,1079.06Z" transform="translate(-1238.72 -120.64)"/><path class="cls-1" d="M2415.22,1085.47v-40.59h16" transform="translate(-1238.72 -120.64)"/><path class="cls-1" d="M2437.65,1038.47a6.41,6.41,0,1,1-6.41,6.41A6.41,6.41,0,0,1,2437.65,1038.47Z" transform="translate(-1238.72 -120.64)"/><path d="M2539.67,1172.53a6.41,6.41,0,1,1-6.41,6.4A6.4,6.4,0,0,1,2539.67,1172.53Z" transform="translate(-1238.72 -120.64)"/><path class="cls-1" d="M2539.67,1178.93h26.17" transform="translate(-1238.72 -120.64)"/><path class="cls-1" d="M2572.25,1172.53a6.41,6.41,0,1,1-6.41,6.4A6.41,6.41,0,0,1,2572.25,1172.53Z" transform="translate(-1238.72 -120.64)"/><path class="cls-1" d="M2165.8,1512.75V1370.14" transform="translate(-1238.72 -120.64)"/><path class="cls-1" d="M2165.8,1348.78V1192.29" transform="translate(-1238.72 -120.64)"/><path class="cls-1" d="M2155.11,1348.78h21.37" transform="translate(-1238.72 -120.64)"/><path class="cls-1" d="M2155.11,1370.14h21.37l-10.68-21.36Z" transform="translate(-1238.72 -120.64)"/><path class="cls-1" d="M2149.77,1356.26l-7.48-7.48" transform="translate(-1238.72 -120.64)"/><path class="cls-1" d="M2142.29,1354.12v-5.34h5.35" transform="translate(-1238.72 -120.64)"/><path class="cls-1" d="M2146.57,1369.07l-7.48-7.47" transform="translate(-1238.72 -120.64)"/><path class="cls-1" d="M2139.09,1366.94v-5.34h5.34" transform="translate(-1238.72 -120.64)"/><path d="M2165.8,1245.16a6.41,6.41,0,1,1-6.41,6.41A6.41,6.41,0,0,1,2165.8,1245.16Z" transform="translate(-1238.72 -120.64)"/><path class="cls-1" d="M2165.8,1251.57h-41.13V1274" transform="translate(-1238.72 -120.64)"/><path class="cls-1" d="M2124.67,1274a6.41,6.41,0,1,1-6.41,6.41A6.41,6.41,0,0,1,2124.67,1274Z" transform="translate(-1238.72 -120.64)"/><path class="cls-1" d="M2165.8,1192.29h106.82" transform="translate(-1238.72 -120.64)"/><path class="cls-1" d="M2201.05,1491.38a21.37,21.37,0,1,1-21.37,21.37A21.37,21.37,0,0,1,2201.05,1491.38Z" transform="translate(-1238.72 -120.64)"/><path class="cls-1" d="M2201.05,1491.38v42.73" transform="translate(-1238.72 -120.64)"/><path class="cls-1" d="M2272.62,1512.75h-50.21" transform="translate(-1238.72 -120.64)"/><path class="cls-1" d="M2179.68,1512.75H2165.8" transform="translate(-1238.72 -120.64)"/><path class="cls-1" d="M2310,968h42.73v21.37H2310Z" transform="translate(-1238.72 -120.64)"/><path class="cls-1" d="M2272.62,978.65h213.64" transform="translate(-1238.72 -120.64)"/><path class="cls-1" d="M2486.26,978.65v106.82" transform="translate(-1238.72 -120.64)"/><path d="M2486.26,1019.24a6.41,6.41,0,1,1-6.41,6.41A6.4,6.4,0,0,1,2486.26,1019.24Z" transform="translate(-1238.72 -120.64)"/><path class="cls-1" d="M2486.26,1025.65h31.51" transform="translate(-1238.72 -120.64)"/><path class="cls-1" d="M2524.18,1019.24a6.41,6.41,0,1,1-6.41,6.41A6.41,6.41,0,0,1,2524.18,1019.24Z" transform="translate(-1238.72 -120.64)"/><path class="cls-1" d="M2272.62,1038.47l-10.69-5.34,21.37-10.69-21.37-10.68,21.37-10.68-21.37-10.68,10.69-5.34" transform="translate(-1238.72 -120.64)"/><path class="cls-1" d="M2272.62,1085.47v-47" transform="translate(-1238.72 -120.64)"/><path class="cls-1" d="M2272.62,985.06v-6.41" transform="translate(-1238.72 -120.64)"/><line class="cls-1" x1="966.24" y1="1721.89" x2="1033.9" y2="1605.75"/><line class="cls-1" x1="1276.27" y1="1721.89" x2="1247.54" y2="1605.75"/><line class="cls-1" x1="1508.78" y1="1721.89" x2="1461.18" y2="1498.93"/><line class="cls-1" x1="1033.9" y1="858.01" x2="1167.42" y2="18.92"/><line class="cls-1" x1="1247.54" y1="858.01" x2="1167.42" y2="18.92"/><line class="cls-1" x1="1353.77" y1="2651.96" x2="1860.29" y2="2901.26"/><line class="cls-1" x1="733.72" y1="2496.95" x2="406.65" y2="2900.8"/><line class="cls-1" x1="223" y1="2952.44" x2="329.79" y2="2900.41"/><path class="cls-1" d="M1829.44,2319.51h-57.35v18.6" transform="translate(-1238.72 -120.64)"/><path class="cls-1" d="M1772.09,2356.71a9.3,9.3,0,1,1,9.3-9.3A9.3,9.3,0,0,1,1772.09,2356.71Z" transform="translate(-1238.72 -120.64)"/></svg>